# xmcd
#
# Track frame offsets: 
#        150
#        23093
#        33533
#        53463
#        87520
#        107165
#        123295
#        148400
#
# Disc length: 2407 seconds
#
# Revision: 0
# Processed by: cddbd v1.5.2PL0 Copyright (c) Steve Scherf et al.
# Submitted via: ExactAudioCopy v0.99pb5
#
DISCID=69096508
DTITLE=Rush  - Rush - Warner Bros. 13472  (SHM)  
DYEAR=1900
DGENRE=
TTITLE0=Finding My Way
TTITLE1=Need Some Love
TTITLE2=Take A Friend
TTITLE3=Here Again
TTITLE4=What You're Doing
TTITLE5=In The Mood
TTITLE6=Before And After
TTITLE7=Working Man
EXTD=
EXTT0=
EXTT1=
EXTT2=
EXTT3=
EXTT4=
EXTT5=
EXTT6=
EXTT7=
PLAYORDER=
